# xmcd CD database file
#
# Track frame offsets:
#	150
#	21312
#	39454
#	70047
#	92689
#	109950
#	131959
#	154348
#	175474
#
# Disc length: 2428 seconds
#
# Revision: 1
# Processed by: cddbd v1.5.1PL2 Copyright (c) Steve Scherf et al.
# Submitted via: CD2WAV32(JP) R3.22
#
DISCID=7d097a09
DTITLE=片霧烈火 - みんのうた。
DYEAR=2004
DGENRE=Game
TTITLE0=ふたりの場所
TTITLE1=は・じ・め・て!
TTITLE2=みちびき星
TTITLE3=深霧の楽園
TTITLE4=金色ナリ我ガ姫ノ月 - awnglier maguielaw elir
TTITLE5=泣殻
TTITLE6=月の眼の少年
TTITLE7=深淵舞踏
TTITLE8=カヨワキボクラ short ver.
EXTD=
EXTT0=「神無ノ島」主題歌/すたじおみりす 曲:たくまる 詞:片霧烈火 コーラス:KAKO
EXTT1=「White violet」/Quintetto 詞曲:片霧烈火 編:たくまる コーラス:片霧烈火+霜月はるか
EXTT2=「君が見せた笑顔」挿入歌/First ｒｅｇｒｅｔs 曲:HIR 詞:片霧烈火
EXTT3=「黒の図書館」主題歌/ふぉ～ちゅん♪ 曲:鶴由雄 詞:片霧烈火
EXTT4=「７th Moon」/LittleWing 詞曲:片霧烈火 編:まにょっ
EXTT5=「眠れぬ者達へ」主題歌/DigitalWorks/Glastonbury 曲:たくまる 詞:片霧烈火 コーラス:片霧烈火+霜月はるか
EXTT6=「LOST CHILD」挿入歌/たまソフト 詞曲:片霧烈火 編:細井聡司
EXTT7=「アニマムンディ - 終わりなき闇の舞踏」主題歌/花梨エンターテインメント 詞曲:片霧烈火 編:HIR
EXTT8=「Angel's Feather -黒の残影-」主題歌/Blueimpact/GoodNavigate 詞曲:片霧烈火 編:細井聡司
PLAYORDER=
